<svg xmlns="http://www.w3.org/2000/svg" viewBox="0 0 100 100" width="100" height="100">
  <defs>
    <linearGradient id="dishBg" x1="0%" y1="0%" x2="100%" y2="100%">
      <stop offset="0%" stop-color="#f0fdf4"/>
      <stop offset="100%" stop-color="#bbf7d0"/>
    </linearGradient>
    <linearGradient id="bottle" x1="0%" y1="0%" x2="100%" y2="100%">
      <stop offset="0%" stop-color="#22c55e"/>
      <stop offset="100%" stop-color="#16a34a"/>
    </linearGradient>
  </defs>
  <rect width="100" height="100" rx="16" fill="url(#dishBg)"/>
  <!-- Bottle cap -->
  <rect x="46" y="20" width="8" height="8" rx="2" fill="#ef4444"/>
  <rect x="44" y="28" width="12" height="6" fill="#e2e8f0"/>
  <!-- Bottle body -->
  <path d="M42 34 C36 40 32 48 32 60 C32 72 38 78 50 78 C62 78 68 72 68 60 C68 48 64 40 58 34 Z" fill="url(#bottle)"/>
  <!-- Label on bottle -->
  <rect x="38" y="48" width="24" height="18" rx="3" fill="#ffffff" opacity="0.9"/>
  <circle cx="50" cy="57" r="5" fill="#facc15"/>
  <!-- Suds / bubbles -->
  <circle cx="68" cy="30" r="4" fill="#86efac" opacity="0.8"/>
  <circle cx="74" cy="24" r="2.5" fill="#86efac" opacity="0.8"/>
</svg>
